<svg width="800" height="800" viewBox="0 0 800 800" fill="none" xmlns="http://www.w3.org/2000/svg">
<rect width="800" height="800" fill="#050259"/>
<path d="M269 493.328V159H338.701V493.328L408.402 584.885L453.294 493.328V159H531.265V493.328L453.294 640.409H361.147L269 493.328Z" fill="#0FB3F5"/>
<path d="M269 493.328V159H338.701V493.328L408.402 584.885L453.294 493.328V159H531.265V493.328L453.294 640.409H361.147L269 493.328Z" fill="url(#paint0_linear_8_2)"/>
<path d="M269 493.328V159H338.701V493.328L408.402 584.885L453.294 493.328V159H531.265V493.328L453.294 640.409H361.147L269 493.328Z" stroke="#0FB3F5" stroke-width="4.72549"/>
<path d="M269 493.328V159H338.701V493.328L408.402 584.885L453.294 493.328V159H531.265V493.328L453.294 640.409H361.147L269 493.328Z" stroke="url(#paint1_linear_8_2)" stroke-width="4.72549"/>
<defs>
<linearGradient id="paint0_linear_8_2" x1="400.132" y1="159" x2="400.132" y2="640.409" gradientUnits="userSpaceOnUse">
<stop stop-color="#FFB3F5"/>
<stop offset="1" stop-color="white" stop-opacity="0"/>
</linearGradient>
<linearGradient id="paint1_linear_8_2" x1="445.91" y1="159" x2="445.91" y2="640.409" gradientUnits="userSpaceOnUse">
<stop stop-color="#FFB3F5"/>
<stop offset="1" stop-color="white" stop-opacity="0"/>
</linearGradient>
</defs>
</svg>
